<svg width="95" height="90" viewBox="0 0 95 90" fill="none" xmlns="http://www.w3.org/2000/svg">
<rect y="1.07275" width="75.9449" height="88.0016" rx="37.9724" transform="rotate(-0.0448542 0 1.07275)" fill="url(#paint0_linear_23_35)"/>
<rect x="22.4889" y="4.55512" width="68.9449" height="81.0016" rx="34.4724" transform="rotate(-0.0448542 22.4889 4.55512)" fill="url(#paint1_linear_23_35)"/>
<rect x="22.4889" y="4.55512" width="68.9449" height="81.0016" rx="34.4724" transform="rotate(-0.0448542 22.4889 4.55512)" stroke="url(#paint2_linear_23_35)" stroke-width="7"/>
<rect x="22.4889" y="4.55512" width="68.9449" height="81.0016" rx="34.4724" transform="rotate(-0.0448542 22.4889 4.55512)" stroke="url(#paint3_linear_23_35)" stroke-width="7"/>
<mask id="path-3-inside-1_23_35" fill="white">
<ellipse rx="4.66704" ry="4.47681" transform="matrix(-0.70236 -0.711822 0.70236 -0.711822 58.847 46.1721)"/>
</mask>
<path d="M59.0809 46.4091C58.9313 46.5608 58.7508 46.6041 58.6493 46.602C58.5528 46.5999 58.4962 46.5614 58.4796 46.5445L65.5032 39.4263C61.8925 35.767 55.8697 35.4272 52.0573 39.2909L59.0809 46.4091ZM58.4796 46.5445C58.4629 46.5276 58.4249 46.4704 58.4229 46.3726C58.4208 46.2697 58.4636 46.0867 58.6132 45.9351L65.6368 53.0533C69.4492 49.1896 69.1139 43.0857 65.5032 39.4263L58.4796 46.5445ZM58.6132 45.9351C58.7628 45.7835 58.9433 45.7401 59.0448 45.7423C59.1413 45.7443 59.1978 45.7828 59.2145 45.7997L52.1909 52.9179C55.8016 56.5773 61.8244 56.9171 65.6368 53.0533L58.6132 45.9351ZM59.2145 45.7997C59.2312 45.8166 59.2692 45.8739 59.2712 45.9717C59.2733 46.0746 59.2305 46.2575 59.0809 46.4091L52.0573 39.2909C48.2449 43.1546 48.5802 49.2586 52.1909 52.9179L59.2145 45.7997Z" fill="#F7F7FA" mask="url(#path-3-inside-1_23_35)"/>
<path d="M55.8741 49.3818L37.8454 67.6534L38.9703 68.7936C39.6686 69.5012 41.0039 69.0443 41.6692 68.889C42.879 68.6065 60.0293 63.0588 70.331 59.7343C70.7337 59.6145 71.6175 59.1224 71.9311 58.1127C72.2446 57.103 75.4421 47.1894 77.0016 42.3589M77.0016 42.3589L81.4094 41.5086C83.8645 40.8289 86.0022 37.6403 83.2867 34.8882C80.5713 32.1362 77.8364 29.3645 76.2266 27.733M77.0016 42.3589L69.3983 34.6532" stroke="#F7F7FA" stroke-width="5"/>
<path d="M55.8686 49.3761L37.8399 67.6477L36.7149 66.5076C36.0167 65.7999 36.4675 64.4466 36.6208 63.7723C36.8995 62.5463 42.3734 45.1649 45.6537 34.7244C45.772 34.3163 46.2575 33.4205 47.2538 33.1028C48.2501 32.785 58.0319 29.5445 62.7982 27.9639M62.7982 27.9639L63.6371 23.4967C64.3078 21.0086 67.4541 18.8421 70.1695 21.5941C72.885 24.3462 75.6198 27.1179 77.2297 28.7494M62.7982 27.9639L70.4015 35.6696" stroke="#F7F7FA" stroke-width="5"/>
<defs>
<linearGradient id="paint0_linear_23_35" x1="15.4328" y1="0.862506" x2="14.66" y2="89.2426" gradientUnits="userSpaceOnUse">
<stop stop-color="#182A45"/>
<stop offset="0.15625" stop-color="#05152F"/>
<stop offset="0.758565" stop-color="#07122D"/>
<stop offset="0.833789" stop-color="#031E4E"/>
<stop offset="0.91676" stop-color="#040918"/>
<stop offset="1" stop-color="#040918"/>
</linearGradient>
<linearGradient id="paint1_linear_23_35" x1="56.9587" y1="1.05786" x2="56.9587" y2="89.0594" gradientUnits="userSpaceOnUse">
<stop stop-color="#13213B"/>
<stop offset="0.831735" stop-color="#15304C"/>
<stop offset="1" stop-color="#0B3761"/>
</linearGradient>
<linearGradient id="paint2_linear_23_35" x1="88.4357" y1="3.83727" x2="28.7442" y2="88.5905" gradientUnits="userSpaceOnUse">
<stop offset="0.670529" stop-color="#0D1E31"/>
<stop offset="0.925805" stop-color="#0F2A59"/>
<stop offset="1" stop-color="#0F1B2C"/>
</linearGradient>
<linearGradient id="paint3_linear_23_35" x1="27.6378" y1="-12.9781" x2="55.4085" y2="28.4486" gradientUnits="userSpaceOnUse">
<stop stop-color="white" stop-opacity="0.4"/>
<stop offset="1" stop-color="white" stop-opacity="0"/>
</linearGradient>
</defs>
</svg>
