<svg width="214" height="210" viewBox="0 0 214 210" fill="none" xmlns="http://www.w3.org/2000/svg">
<rect x="26.7051" y="53.9198" width="134.314" height="136.847" rx="50" transform="rotate(-0.0448542 26.7051 53.9198)" fill="url('#paint0_linear_1_31')"></rect>
<rect x="63.7864" y="57.3908" width="127.314" height="129.847" rx="46.5" transform="rotate(-0.0448542 63.7864 57.3908)" fill="url('#paint1_linear_1_31')"></rect>
<rect x="63.7864" y="57.3908" width="127.314" height="129.847" rx="46.5" transform="rotate(-0.0448542 63.7864 57.3908)" stroke="url('#paint2_linear_1_31')" stroke-width="7"></rect>
<rect x="63.7864" y="57.3908" width="127.314" height="129.847" rx="46.5" transform="rotate(-0.0448542 63.7864 57.3908)" stroke="url('#paint3_linear_1_31')" stroke-width="7"></rect>
<path d="M126.843 120.539C128.812 118.785 132.224 118.749 134.468 120.749C136.712 122.749 136.672 125.79 134.703 127.544C132.735 129.298 129.322 129.334 127.078 127.334C124.834 125.335 124.874 122.294 126.843 120.539Z" stroke="#F7F7FA" stroke-width="5"></path>
<path d="M125.515 129.033L93.6265 157.449L95.6159 159.222C96.8508 160.323 99.2124 159.612 100.389 159.37C102.529 158.931 132.861 150.301 151.081 145.129C151.793 144.943 153.357 144.178 153.911 142.607C154.466 141.037 160.123 125.621 162.882 118.109M162.882 118.109L170.677 116.786C175.019 115.728 178.801 110.77 173.999 106.49C169.197 102.211 164.36 97.9017 161.513 95.3648M162.882 118.109L149.436 106.127" stroke="#F7F7FA" stroke-width="5"></path>
<path d="M125.505 129.025L93.6169 157.441L91.6275 155.668C90.3926 154.568 91.1902 152.463 91.4614 151.415C91.9546 149.508 101.639 122.478 107.442 106.242C107.651 105.607 108.51 104.215 110.272 103.72C112.034 103.226 129.334 98.1851 137.764 95.7265M137.764 95.7265L139.249 88.7796C140.435 84.9103 146 81.5408 150.802 85.8199C155.604 90.099 160.44 94.4087 163.287 96.9456M137.764 95.7265L151.21 107.708" stroke="#F7F7FA" stroke-width="5"></path>
<g filter="url('#filter0_f_1_31')">
<path d="M116.08 128.632L90.341 154.371L92.5011 156.531C93.8419 157.872 95.9661 157.446 97.0421 157.353C98.9984 157.185 126.359 152.245 142.795 149.291C143.44 149.192 144.8 148.597 145.079 147.006C145.359 145.416 148.302 129.83 149.739 122.235M149.739 122.235L156.911 121.916C160.855 121.398 163.659 116.658 158.445 111.444C153.231 106.23 147.979 100.978 144.888 97.8872M149.739 122.235L135.14 107.636" stroke="#95A6E0" stroke-width="5"></path>
<path d="M73.1369 116.33C78.753 110.714 88.1967 110.806 94.2331 116.842C100.269 122.878 100.361 132.322 94.7448 137.938C89.1286 143.554 79.685 143.463 73.6486 137.426C67.6122 131.39 67.5208 121.946 73.1369 116.33Z" stroke="#95A6E0" stroke-width="5"></path>
<path d="M83.5437 97.8644L55.5276 125.881L53.7476 124.101C52.6429 122.996 53.331 120.908 53.5619 119.867C53.9819 117.974 62.3234 91.1582 67.3218 75.0505C67.5015 74.4207 68.2504 73.0417 69.8083 72.5641C71.3661 72.0865 86.6596 67.2107 94.1116 64.8325M94.1116 64.8325L95.3649 57.9325C96.3819 54.0922 101.285 50.7845 105.582 55.0809C109.878 59.3773 114.205 63.7044 116.752 66.2515M94.1116 64.8325L106.142 76.8624" stroke="#95A6E0" stroke-width="5"></path>
</g>
<defs>
<filter id="filter0_f_1_31" x="0.654526" y="0.573135" width="232.558" height="227.847" filterUnits="userSpaceOnUse" color-interpolation-filters="sRGB">
<feFlood flood-opacity="0" result="BackgroundImageFix"></feFlood>
<feBlend mode="normal" in="SourceGraphic" in2="BackgroundImageFix" result="shape"></feBlend>
<feGaussianBlur stdDeviation="25" result="effect1_foregroundBlur_1_31"></feGaussianBlur>
</filter>
<linearGradient id="paint0_linear_1_31" x1="53.9991" y1="53.5928" x2="52.9425" y2="191.031" gradientUnits="userSpaceOnUse">
<stop stop-color="#182A45"></stop>
<stop offset="0.15625" stop-color="#05152F"></stop>
<stop offset="0.758565" stop-color="#07122D"></stop>
<stop offset="0.833789" stop-color="#031E4E"></stop>
<stop offset="0.91676" stop-color="#040918"></stop>
<stop offset="1" stop-color="#040918"></stop>
</linearGradient>
<linearGradient id="paint1_linear_1_31" x1="127.441" y1="53.8935" x2="127.441" y2="190.74" gradientUnits="userSpaceOnUse">
<stop stop-color="#13213B"></stop>
<stop offset="0.831735" stop-color="#15304C"></stop>
<stop offset="1" stop-color="#0B3761"></stop>
</linearGradient>
<linearGradient id="paint2_linear_1_31" x1="183.11" y1="58.2156" x2="94.8547" y2="200.733" gradientUnits="userSpaceOnUse">
<stop offset="0.670529" stop-color="#152E4A"></stop>
<stop offset="0.925805" stop-color="#143776"></stop>
<stop offset="1" stop-color="#15253C"></stop>
</linearGradient>
<linearGradient id="paint3_linear_1_31" x1="75.5848" y1="32.0669" x2="116.429" y2="101.362" gradientUnits="userSpaceOnUse">
<stop stop-color="white" stop-opacity="0.4"></stop>
<stop offset="1" stop-color="white" stop-opacity="0"></stop>
</linearGradient>
</defs>
</svg>
